REM DIRINDEX 1\4,1\2\5,1\2\6,1\3\7,1\3\8
REM DIRNAME cjc124,folder01,folder02,folder03,folder04,folder05,folder06,folder07
TITLE ""
FILE "089_Day45_Check2_Phrases.mp3" MP3
  TRACK 01 AUDIO
    TITLE "0:"
    INDEX 01 00:00:00
  TRACK 02 AUDIO
    TITLE "4:cjc124_2907"
    INDEX 01 00:00:33
  TRACK 03 AUDIO
    TITLE "0:"
    INDEX 01 00:01:58
  TRACK 04 AUDIO
    TITLE "5:cjc124_2908"
    INDEX 01 00:02:10
  TRACK 05 AUDIO
    TITLE "0:"
    INDEX 01 00:03:68
  TRACK 06 AUDIO
    TITLE "6:cjc124_2909"
    INDEX 01 00:04:27
  TRACK 07 AUDIO
    TITLE "0:"
    INDEX 01 00:05:61
  TRACK 08 AUDIO
    TITLE "5:cjc124_2910"
    INDEX 01 00:06:31
  TRACK 09 AUDIO
    TITLE "0:"
    INDEX 01 00:07:62
  TRACK 10 AUDIO
    TITLE "6:cjc124_2911"
    INDEX 01 00:08:11
  TRACK 11 AUDIO
    TITLE "0:"
    INDEX 01 00:09:10
  TRACK 12 AUDIO
    TITLE "5:cjc124_2912"
    INDEX 01 00:09:53
  TRACK 13 AUDIO
    TITLE "0:"
    INDEX 01 00:11:64
  TRACK 14 AUDIO
    TITLE "6:cjc124_2913"
    INDEX 01 00:12:07
  TRACK 15 AUDIO
    TITLE "0:"
    INDEX 01 00:13:35
  TRACK 16 AUDIO
    TITLE "5:cjc124_2914"
    INDEX 01 00:14:04
  TRACK 17 AUDIO
    TITLE "0:"
    INDEX 01 00:15:64
  TRACK 18 AUDIO
    TITLE "6:cjc124_2915"
    INDEX 01 00:16:08
  TRACK 19 AUDIO
    TITLE "0:"
    INDEX 01 00:17:45
  TRACK 20 AUDIO
    TITLE "5:cjc124_2916"
    INDEX 01 00:18:11
  TRACK 21 AUDIO
    TITLE "0:"
    INDEX 01 00:19:42
  TRACK 22 AUDIO
    TITLE "6:cjc124_2917"
    INDEX 01 00:19:67
  TRACK 23 AUDIO
    TITLE "0:"
    INDEX 01 00:21:37
  TRACK 24 AUDIO
    TITLE "5:cjc124_2918"
    INDEX 01 00:22:01
  TRACK 25 AUDIO
    TITLE "0:"
    INDEX 01 00:23:73
  TRACK 26 AUDIO
    TITLE "6:cjc124_2919"
    INDEX 01 00:24:16
  TRACK 27 AUDIO
    TITLE "0:"
    INDEX 01 00:25:37
  TRACK 28 AUDIO
    TITLE "5:cjc124_2920"
    INDEX 01 00:26:01
  TRACK 29 AUDIO
    TITLE "0:"
    INDEX 01 00:27:55
  TRACK 30 AUDIO
    TITLE "6:cjc124_2921"
    INDEX 01 00:28:00
  TRACK 31 AUDIO
    TITLE "0:"
    INDEX 01 00:29:01
  TRACK 32 AUDIO
    TITLE "5:cjc124_2922"
    INDEX 01 00:29:36
  TRACK 33 AUDIO
    TITLE "0:"
    INDEX 01 00:31:18
  TRACK 34 AUDIO
    TITLE "6:cjc124_2923"
    INDEX 01 00:31:37
  TRACK 35 AUDIO
    TITLE "0:"
    INDEX 01 00:32:72
  TRACK 36 AUDIO
    TITLE "5:cjc124_2924"
    INDEX 01 00:33:42
  TRACK 37 AUDIO
    TITLE "0:"
    INDEX 01 00:34:73
  TRACK 38 AUDIO
    TITLE "6:cjc124_2925"
    INDEX 01 00:35:27
  TRACK 39 AUDIO
    TITLE "0:"
    INDEX 01 00:36:54
  TRACK 40 AUDIO
    TITLE "5:cjc124_2926"
    INDEX 01 00:37:22
  TRACK 41 AUDIO
    TITLE "0:"
    INDEX 01 00:39:21
  TRACK 42 AUDIO
    TITLE "6:cjc124_2927"
    INDEX 01 00:39:41
  TRACK 43 AUDIO
    TITLE "0:"
    INDEX 01 00:41:34
  TRACK 44 AUDIO
    TITLE "5:cjc124_2928"
    INDEX 01 00:42:02
  TRACK 45 AUDIO
    TITLE "0:"
    INDEX 01 00:44:46
  TRACK 46 AUDIO
    TITLE "6:cjc124_2929"
    INDEX 01 00:44:67
  TRACK 47 AUDIO
    TITLE "0:"
    INDEX 01 00:46:37
  TRACK 48 AUDIO
    TITLE "5:cjc124_2930"
    INDEX 01 00:46:74
  TRACK 49 AUDIO
    TITLE "0:"
    INDEX 01 00:48:59
  TRACK 50 AUDIO
    TITLE "6:cjc124_2931"
    INDEX 01 00:49:06
  TRACK 51 AUDIO
    TITLE "0:"
    INDEX 01 00:50:52
  TRACK 52 AUDIO
    TITLE "5:cjc124_2932"
    INDEX 01 00:51:20
  TRACK 53 AUDIO
    TITLE "0:"
    INDEX 01 00:52:59
  TRACK 54 AUDIO
    TITLE "6:cjc124_2933"
    INDEX 01 00:53:02
  TRACK 55 AUDIO
    TITLE "0:"
    INDEX 01 00:54:30
  TRACK 56 AUDIO
    TITLE "5:cjc124_2934"
    INDEX 01 00:54:68
  TRACK 57 AUDIO
    TITLE "0:"
    INDEX 01 00:56:63
  TRACK 58 AUDIO
    TITLE "6:cjc124_2935"
    INDEX 01 00:57:07
  TRACK 59 AUDIO
    TITLE "0:"
    INDEX 01 00:58:30
  TRACK 60 AUDIO
    TITLE "5:cjc124_2936"
    INDEX 01 00:58:67
  TRACK 61 AUDIO
    TITLE "0:"
    INDEX 01 01:01:33
  TRACK 62 AUDIO
    TITLE "6:cjc124_2937"
    INDEX 01 01:01:52
  TRACK 63 AUDIO
    TITLE "0:"
    INDEX 01 01:04:31
  TRACK 64 AUDIO
    TITLE "5:cjc124_2938"
    INDEX 01 01:04:68
  TRACK 65 AUDIO
    TITLE "0:"
    INDEX 01 01:06:55
  TRACK 66 AUDIO
    TITLE "6:cjc124_2939"
    INDEX 01 01:06:71
  TRACK 67 AUDIO
    TITLE "0:"
    INDEX 01 01:08:31
